<?xml version="1.0" standalone="no"?>
<!DOCTYPE svg PUBLIC "-//W3C//DTD SVG 20010904//EN"
 "http://www.w3.org/TR/2001/REC-SVG-20010904/DTD/svg10.dtd">
<svg version="1.0" xmlns="http://www.w3.org/2000/svg"
 width="398.000000pt" height="398.000000pt" viewBox="0 0 398.000000 398.000000"
 preserveAspectRatio="xMidYMid meet">
<metadata>
Created by potrace 1.11, written by Peter Selinger 2001-2013
</metadata>
<g transform="translate(0.000000,398.000000) scale(0.100000,-0.100000)"
fill="#000000" stroke="none">
<path d="M3704 3864 c-33 -7 -72 -15 -89 -17 -16 -3 -45 -10 -63 -16 -18 -5
-33 -9 -35 -9 -5 1 -75 -34 -102 -52 -16 -11 -37 -23 -45 -27 -8 -3 -17 -9
-20 -12 -5 -6 -21 -18 -125 -89 -33 -23 -75 -54 -94 -71 -19 -16 -46 -35 -60
-43 -14 -7 -35 -23 -48 -34 -13 -12 -42 -34 -65 -50 -23 -16 -95 -68 -160
-116 -64 -49 -119 -88 -122 -88 -4 0 -14 -7 -23 -15 -172 -150 -342 -251 -373
-222 -10 9 -11 9 -6 0 5 -9 1 -13 -11 -13 -11 0 -25 6 -32 13 -11 10 -12 9 -6
-3 5 -8 -4 -4 -19 10 -23 21 -26 22 -20 5 7 -18 6 -19 -10 -6 -59 48 -87 163
-66 266 15 73 40 113 123 197 56 57 66 73 72 113 8 51 -14 119 -44 135 -33 17
-211 0 -211 -20 0 -5 -8 -6 -18 -4 -19 6 -156 -61 -188 -91 -33 -31 -67 -56
-91 -68 -13 -5 -23 -13 -23 -17 0 -12 -107 -90 -114 -83 -3 4 -6 1 -6 -5 0 -7
-7 -12 -15 -12 -8 0 -14 -4 -13 -8 2 -5 -13 -22 -32 -38 -19 -16 -30 -22 -26
-14 5 8 -7 -1 -27 -20 -41 -41 -123 -112 -142 -123 -26 -14 -93 -86 -86 -92 3
-4 0 -5 -6 -3 -13 3 -183 -159 -183 -174 0 -4 -7 -8 -15 -8 -8 0 -22 -12 -32
-27 -10 -16 -20 -30 -23 -33 -3 -3 -28 -30 -57 -61 -29 -31 -55 -54 -58 -50
-4 3 -5 1 -3 -5 1 -6 -17 -34 -42 -61 -25 -28 -55 -64 -67 -80 -12 -15 -31
-39 -43 -53 -12 -14 -31 -38 -43 -54 -12 -16 -32 -39 -44 -51 -13 -12 -23 -26
-23 -30 0 -6 -37 -60 -90 -130 -8 -11 -60 -65 -116 -120 -55 -56 -109 -113
-119 -128 -9 -15 -22 -24 -28 -20 -6 3 -7 1 -3 -6 4 -6 -2 -23 -13 -37 -12
-15 -21 -32 -21 -40 0 -7 -4 -14 -9 -16 -12 -4 -89 -152 -112 -218 -37 -100
-64 -243 -74 -380 -10 -134 20 -335 72 -480 48 -136 142 -306 209 -379 12 -13
20 -29 17 -34 -3 -6 -1 -7 6 -3 7 4 15 -2 20 -16 6 -13 10 -19 10 -14 1 4 20
-11 44 -34 23 -24 62 -59 87 -78 25 -20 53 -45 63 -57 10 -11 16 -14 12 -7 -9
17 -3 15 33 -11 17 -13 28 -28 24 -32 -4 -5 1 -5 10 -2 9 3 27 -3 41 -14 14
-10 32 -19 41 -19 9 0 19 -7 22 -15 4 -8 10 -13 14 -10 12 8 71 -20 63 -30 -5
-4 -3 -5 4 -1 17 9 64 -4 57 -16 -4 -6 2 -7 16 -3 13 4 20 3 17 -2 -3 -5 15
-10 41 -11 25 -1 49 -6 52 -12 4 -6 14 -8 23 -4 9 3 21 3 27 -1 7 -4 67 -9
133 -11 67 -3 141 -6 164 -8 23 -3 43 -1 45 4 2 5 37 10 80 12 42 2 74 6 71
10 -2 5 3 8 11 8 28 0 200 62 271 97 111 56 243 154 335 249 47 48 116 109
153 136 71 51 129 96 257 201 109 89 125 104 216 191 55 52 87 76 96 70 7 -4
10 -3 5 1 -4 5 44 60 106 124 138 142 185 197 370 429 209 260 263 351 307
510 26 94 29 133 13 159 -17 25 -62 43 -111 43 -40 0 -109 -36 -117 -60 -3
-10 -15 -26 -27 -36 -14 -12 -19 -14 -13 -4 4 8 -10 -3 -32 -24 -54 -53 -120
-77 -209 -78 -174 -2 -238 112 -157 283 16 35 69 116 116 179 47 63 96 130
109 148 13 18 28 39 34 45 5 7 29 39 52 72 23 33 70 99 104 147 268 370 329
457 340 492 6 17 14 36 19 41 12 16 48 174 53 230 2 28 7 64 11 80 5 23 2 37
-13 55 -22 28 -69 32 -158 14z m-120 -298 c-10 -8 -19 -18 -19 -23 0 -18 -58
-82 -69 -76 -6 3 -8 3 -4 -2 4 -4 3 -15 -2 -25 -15 -28 -77 -99 -82 -95 -3 3
-5 -1 -5 -7 0 -18 -134 -199 -143 -193 -3 2 -7 -1 -7 -8 0 -13 -177 -254 -203
-275 -12 -11 -13 -12 0 -7 8 4 2 -4 -14 -19 -16 -14 -25 -26 -20 -26 5 0 -2
-10 -16 -21 -14 -11 -19 -17 -11 -13 8 4 2 -9 -13 -28 -15 -20 -34 -39 -42
-42 -8 -3 -13 -10 -12 -15 3 -11 -66 -107 -96 -134 -12 -10 -14 -16 -6 -12 8
4 6 -1 -4 -9 -11 -9 -16 -16 -12 -16 5 0 0 -8 -11 -17 -10 -10 -14 -16 -8 -13
6 3 3 -3 -7 -12 -11 -9 -18 -20 -17 -23 3 -12 -24 -65 -33 -65 -5 0 -6 -4 -3
-10 3 -5 1 -10 -5 -10 -6 0 -9 -3 -6 -8 2 -4 -3 -23 -12 -42 -20 -45 -18 -39
-27 -87 -4 -24 -10 -41 -14 -39 -11 7 5 -168 17 -192 7 -12 10 -28 6 -35 -4
-6 -4 -9 0 -5 4 4 22 -9 38 -28 36 -40 87 -69 142 -80 48 -9 276 -11 276 -3 0
3 26 9 57 13 31 4 66 8 78 10 11 2 14 1 7 -1 -7 -3 -10 -9 -6 -14 3 -5 -2 -12
-10 -15 -9 -3 -16 -12 -16 -19 0 -7 -18 -29 -40 -49 -22 -20 -40 -40 -40 -45
0 -5 -11 -18 -25 -29 -14 -11 -25 -25 -25 -30 0 -6 -7 -15 -16 -20 -8 -5 -21
-17 -27 -28 -38 -64 -54 -85 -74 -95 -12 -7 -20 -15 -18 -19 6 -10 -32 -40
-41 -32 -4 4 -4 2 -1 -4 3 -6 -53 -68 -126 -139 -178 -173 -197 -190 -197
-180 0 4 -8 -2 -19 -13 -10 -12 -22 -22 -26 -22 -4 0 -16 -11 -27 -25 -11 -14
-25 -25 -31 -25 -7 0 -1 9 13 20 14 11 18 19 10 18 -13 -3 -15 23 -15 182 0
139 -5 208 -19 278 -10 50 -22 95 -27 98 -5 3 -9 14 -9 24 0 25 -80 192 -119
250 -17 25 -31 48 -31 52 0 4 -10 18 -22 32 -42 46 -70 81 -86 109 -9 15 -19
27 -22 27 -4 0 -24 16 -46 35 -21 19 -45 35 -51 35 -7 0 -13 7 -13 15 0 8 -9
19 -20 25 -11 6 -20 8 -20 6 0 -3 -14 8 -30 24 -17 17 -37 30 -45 30 -7 0 -15
3 -17 8 -4 9 -91 52 -107 52 -6 0 -11 4 -11 8 0 12 -117 56 -214 82 -87 23
-163 30 -378 33 -129 2 -145 4 -134 17 7 8 24 28 37 44 155 190 301 338 489
496 106 88 125 105 155 133 39 37 104 81 110 75 3 -2 1 -18 -4 -36 -5 -17 -15
-98 -21 -179 -9 -115 -9 -162 0 -208 7 -33 13 -68 13 -77 1 -9 3 -15 5 -13 2
2 15 -9 28 -24 13 -16 45 -39 71 -52 41 -20 63 -23 153 -23 97 0 111 3 180 33
41 18 83 34 92 34 9 1 15 4 13 7 -6 10 65 41 76 34 5 -3 8 0 7 8 -2 7 5 13 14
13 9 0 20 4 25 9 4 5 3 6 -4 2 -7 -4 -13 -5 -13 -2 0 3 33 27 73 54 39 27 89
61 111 75 21 15 42 24 47 21 5 -3 8 0 7 8 -2 7 5 12 14 12 10 -1 16 3 15 9 -3
14 174 138 186 130 6 -3 7 -1 3 5 -8 13 63 64 77 55 6 -3 7 -1 3 5 -7 11 6 17
27 13 5 -1 6 3 3 8 -4 5 5 18 19 28 14 10 42 30 62 45 19 15 40 25 47 21 6 -3
8 -3 4 1 -10 11 120 108 134 100 6 -4 8 -3 4 4 -5 9 67 71 86 73 4 0 24 16 44
35 28 25 40 31 46 21 7 -10 12 -4 6 7 -5 7 45 56 50 51 3 -3 -3 -12 -14 -19z
m-2514 -640 c0 -2 -7 -7 -16 -10 -8 -3 -12 -2 -9 4 6 10 25 14 25 6z m403
-804 c8 -7 16 -9 19 -7 15 15 248 -80 248 -101 0 -3 -5 -2 -12 2 -7 4 -8 3 -4
-4 4 -6 13 -9 21 -5 9 3 28 -8 47 -28 17 -19 28 -27 23 -19 -5 10 -1 8 13 -4
12 -10 19 -23 15 -29 -4 -6 -1 -7 6 -2 16 9 73 -44 66 -63 -2 -7 -1 -10 4 -7
12 7 42 -35 35 -47 -3 -5 -1 -7 5 -6 13 4 62 -63 54 -75 -3 -6 -1 -7 4 -4 11
7 49 -72 76 -158 30 -91 45 -203 41 -293 -4 -98 -23 -204 -34 -197 -5 3 -6 -5
-2 -17 3 -14 1 -19 -6 -14 -8 5 -10 1 -5 -10 4 -10 0 -20 -11 -26 -9 -5 -14
-14 -10 -19 6 -11 -17 -69 -28 -69 -5 0 -7 -3 -6 -7 4 -17 -14 -53 -24 -47 -7
4 -8 2 -4 -5 10 -15 -13 -43 -27 -34 -6 4 -8 0 -4 -10 4 -10 1 -17 -5 -17 -6
0 -8 -3 -5 -7 4 -3 -5 -17 -19 -30 -14 -12 -22 -23 -18 -23 5 0 2 -6 -4 -12
-7 -7 -18 -13 -25 -13 -7 0 -12 -6 -12 -12 0 -19 -53 -64 -71 -61 -10 2 -18
-5 -20 -15 -3 -20 -34 -48 -46 -41 -4 3 -12 -5 -18 -16 -6 -11 -15 -18 -20
-15 -4 3 -10 0 -12 -5 -2 -6 -10 -12 -18 -14 -8 -1 -44 -16 -80 -33 -127 -59
-142 -63 -258 -70 -80 -5 -199 7 -272 28 -101 30 -240 100 -240 121 0 5 -4 6
-10 3 -5 -3 -10 -1 -10 5 0 6 -4 9 -9 6 -8 -6 -33 17 -28 25 1 2 0 3 -2 2 -19
-11 -156 140 -144 159 3 6 1 8 -4 5 -12 -8 -36 17 -26 26 3 4 1 7 -5 7 -14 0
-87 147 -106 215 -88 304 -9 618 209 838 64 64 147 127 215 163 74 40 204 86
265 95 75 11 282 4 298 -9z"/>
<path d="M1870 1896 c0 -2 8 -10 18 -17 15 -13 16 -12 3 4 -13 16 -21 21 -21
13z"/>
</g>
</svg>
